<mxfile host="app.diagrams.net" modified="2022-12-25T09:38:58.560Z" agent="5.0 (Windows)" etag="ZvrPG0RaKCId8AXOeGm4" version="20.6.0" type="github">
  <diagram name="Page-1" id="c37626ed-c26b-45fb-9056-f9ebc6bb27b6">
    <mxGraphModel dx="1896" dy="897" grid="1" gridSize="10" guides="1" tooltips="1" connect="1" arrows="1" fold="1" page="1" pageScale="1" pageWidth="1100" pageHeight="850" background="none" math="0" shadow="0">
      <root>
        <mxCell id="0" />
        <mxCell id="1" parent="0" />
        <mxCell id="1c7a67bf8fd3230f-83" value="Home_1" style="whiteSpace=wrap;html=1;rounded=0;shadow=0;comic=0;strokeWidth=1;fontFamily=Verdana;fontSize=14;fillColor=#f5f5f5;strokeColor=none;verticalAlign=top;fontStyle=1;align=center;" parent="1" vertex="1">
          <mxGeometry x="420" y="250" width="986" height="441" as="geometry" />
        </mxCell>
        <mxCell id="1c7a67bf8fd3230f-81" value="Home_2" style="whiteSpace=wrap;html=1;rounded=0;shadow=0;comic=0;strokeWidth=1;fontFamily=Verdana;fontSize=14;fillColor=#f5f5f5;strokeColor=none;fontStyle=1;verticalAlign=top;" parent="1" vertex="1">
          <mxGeometry x="340" y="1210" width="1300" height="470" as="geometry" />
        </mxCell>
        <mxCell id="1c7a67bf8fd3230f-47" value="&lt;div&gt;951G-2HnD &lt;br&gt;&lt;/div&gt;&lt;div&gt;(192.168.88.0/24;&lt;/div&gt;&lt;div&gt;10.130.130.0/24 )&lt;br&gt;&lt;/div&gt;" style="shape=mxgraph.cisco.routers.router;html=1;dashed=0;fillColor=#036897;strokeColor=#ffffff;strokeWidth=2;verticalLabelPosition=middle;verticalAlign=middle;rounded=0;shadow=0;comic=0;fontFamily=Verdana;fontSize=12;align=left;labelBackgroundColor=none;labelPosition=right;" parent="1" vertex="1">
          <mxGeometry x="836" y="520" width="140" height="95.5" as="geometry" />
        </mxCell>
        <mxCell id="9nUGr13jLYYh1S3SIOJ--30" style="edgeStyle=orthogonalEdgeStyle;rounded=0;orthogonalLoop=1;jettySize=auto;html=1;" edge="1" parent="1" source="9nUGr13jLYYh1S3SIOJ--1" target="1c7a67bf8fd3230f-47">
          <mxGeometry relative="1" as="geometry">
            <Array as="points">
              <mxPoint x="1101" y="710" />
              <mxPoint x="950" y="710" />
            </Array>
          </mxGeometry>
        </mxCell>
        <mxCell id="9nUGr13jLYYh1S3SIOJ--31" style="edgeStyle=orthogonalEdgeStyle;rounded=0;orthogonalLoop=1;jettySize=auto;html=1;entryX=1.042;entryY=0.611;entryDx=0;entryDy=0;entryPerimeter=0;" edge="1" parent="1" source="9nUGr13jLYYh1S3SIOJ--1" target="9nUGr13jLYYh1S3SIOJ--18">
          <mxGeometry relative="1" as="geometry">
            <Array as="points">
              <mxPoint x="1101" y="949" />
            </Array>
          </mxGeometry>
        </mxCell>
        <mxCell id="9nUGr13jLYYh1S3SIOJ--40" value="&lt;div&gt;VPN (PPTP)&lt;/div&gt;&lt;div&gt;10.0.2.0/24&lt;/div&gt;" style="edgeLabel;html=1;align=center;verticalAlign=middle;resizable=0;points=[];" vertex="1" connectable="0" parent="9nUGr13jLYYh1S3SIOJ--31">
          <mxGeometry x="0.0855" y="2" relative="1" as="geometry">
            <mxPoint x="-11" as="offset" />
          </mxGeometry>
        </mxCell>
        <UserObject label="&lt;div&gt;Internet RDTC&lt;/div&gt;&lt;div&gt;31.220.166.247/19&lt;/div&gt;&lt;div&gt;&lt;br&gt;&lt;/div&gt;" id="9nUGr13jLYYh1S3SIOJ--1">
          <mxCell style="ellipse;shape=cloud;whiteSpace=wrap;html=1;rounded=0;shadow=0;comic=0;strokeWidth=1;fontFamily=Verdana;fontSize=12;" vertex="1" parent="1">
            <mxGeometry x="1010" y="800" width="182" height="100" as="geometry" />
          </mxCell>
        </UserObject>
        <mxCell id="9nUGr13jLYYh1S3SIOJ--29" style="edgeStyle=orthogonalEdgeStyle;rounded=0;orthogonalLoop=1;jettySize=auto;html=1;" edge="1" parent="1" source="9nUGr13jLYYh1S3SIOJ--2" target="1c7a67bf8fd3230f-47">
          <mxGeometry relative="1" as="geometry">
            <Array as="points">
              <mxPoint x="760" y="708" />
              <mxPoint x="880" y="708" />
            </Array>
          </mxGeometry>
        </mxCell>
        <mxCell id="9nUGr13jLYYh1S3SIOJ--60" value="L2TP (beeline)" style="edgeLabel;html=1;align=center;verticalAlign=middle;resizable=0;points=[];" vertex="1" connectable="0" parent="9nUGr13jLYYh1S3SIOJ--29">
          <mxGeometry x="-0.1564" y="1" relative="1" as="geometry">
            <mxPoint as="offset" />
          </mxGeometry>
        </mxCell>
        <mxCell id="9nUGr13jLYYh1S3SIOJ--32" style="edgeStyle=orthogonalEdgeStyle;rounded=0;orthogonalLoop=1;jettySize=auto;html=1;" edge="1" parent="1" source="9nUGr13jLYYh1S3SIOJ--2" target="9nUGr13jLYYh1S3SIOJ--18">
          <mxGeometry relative="1" as="geometry">
            <Array as="points">
              <mxPoint x="758" y="950" />
            </Array>
          </mxGeometry>
        </mxCell>
        <mxCell id="9nUGr13jLYYh1S3SIOJ--39" value="&lt;div&gt;VPN (PPTP)&lt;div&gt;10.0.2.0/24&lt;/div&gt;&lt;/div&gt;" style="edgeLabel;html=1;align=center;verticalAlign=middle;resizable=0;points=[];" vertex="1" connectable="0" parent="9nUGr13jLYYh1S3SIOJ--32">
          <mxGeometry y="1" relative="1" as="geometry">
            <mxPoint as="offset" />
          </mxGeometry>
        </mxCell>
        <mxCell id="9nUGr13jLYYh1S3SIOJ--2" value="&lt;div&gt;Internet Beeline&lt;/div&gt;&lt;div&gt;37.145.93.213/31&lt;/div&gt;" style="ellipse;shape=cloud;whiteSpace=wrap;html=1;rounded=0;shadow=0;comic=0;strokeWidth=1;fontFamily=Verdana;fontSize=12;" vertex="1" parent="1">
          <mxGeometry x="670" y="780" width="175" height="102" as="geometry" />
        </mxCell>
        <mxCell id="9nUGr13jLYYh1S3SIOJ--8" style="edgeStyle=orthogonalEdgeStyle;rounded=0;orthogonalLoop=1;jettySize=auto;html=1;" edge="1" parent="1" source="9nUGr13jLYYh1S3SIOJ--7">
          <mxGeometry relative="1" as="geometry">
            <mxPoint x="880" y="520" as="targetPoint" />
          </mxGeometry>
        </mxCell>
        <mxCell id="9nUGr13jLYYh1S3SIOJ--63" value="cat5e" style="edgeLabel;html=1;align=center;verticalAlign=middle;resizable=0;points=[];" vertex="1" connectable="0" parent="9nUGr13jLYYh1S3SIOJ--8">
          <mxGeometry x="0.4732" relative="1" as="geometry">
            <mxPoint as="offset" />
          </mxGeometry>
        </mxCell>
        <mxCell id="9nUGr13jLYYh1S3SIOJ--7" value="&lt;div&gt;Server Proxmox&lt;/div&gt;&lt;div&gt;192.168.88.0/24&lt;br&gt;&lt;/div&gt;" style="sketch=0;outlineConnect=0;fontColor=#232F3E;gradientColor=none;fillColor=#232F3D;strokeColor=none;dashed=0;verticalLabelPosition=bottom;verticalAlign=top;align=center;html=1;fontSize=12;fontStyle=0;aspect=fixed;pointerEvents=1;shape=mxgraph.aws4.traditional_server;" vertex="1" parent="1">
          <mxGeometry x="700" y="250" width="45" height="78" as="geometry" />
        </mxCell>
        <mxCell id="9nUGr13jLYYh1S3SIOJ--28" value="cat5e" style="edgeStyle=orthogonalEdgeStyle;rounded=0;orthogonalLoop=1;jettySize=auto;html=1;" edge="1" parent="1" source="9nUGr13jLYYh1S3SIOJ--9" target="1c7a67bf8fd3230f-47">
          <mxGeometry relative="1" as="geometry" />
        </mxCell>
        <mxCell id="9nUGr13jLYYh1S3SIOJ--9" value="&lt;div&gt;PC&lt;/div&gt;&lt;div&gt;192.198.88.0/24&lt;br&gt;&lt;/div&gt;" style="fontColor=#0066CC;verticalAlign=top;verticalLabelPosition=bottom;labelPosition=center;align=center;html=1;outlineConnect=0;fillColor=#CCCCCC;strokeColor=#6881B3;gradientColor=none;gradientDirection=north;strokeWidth=2;shape=mxgraph.networks.pc;" vertex="1" parent="1">
          <mxGeometry x="630" y="450" width="100" height="70" as="geometry" />
        </mxCell>
        <mxCell id="9nUGr13jLYYh1S3SIOJ--13" value="&lt;div&gt;802.11 b.g.n dhcp &lt;br&gt;&lt;/div&gt;&lt;div&gt;(192.168.88.0/24)&lt;/div&gt;" style="sketch=0;outlineConnect=0;fontColor=#232F3E;gradientColor=none;fillColor=#232F3D;strokeColor=none;dashed=0;verticalLabelPosition=bottom;verticalAlign=top;align=center;html=1;fontSize=12;fontStyle=0;aspect=fixed;pointerEvents=1;shape=mxgraph.aws4.mobile_client;" vertex="1" parent="1">
          <mxGeometry x="500" y="316.5" width="41" height="78" as="geometry" />
        </mxCell>
        <mxCell id="9nUGr13jLYYh1S3SIOJ--18" value="Cloud Route OS&#xa;10.0.3.0/24&#xa;10.0.2.0/24&#xa;" style="editableCssRules=.*;shape=image;verticalLabelPosition=top;labelBackgroundColor=#ffffff;verticalAlign=bottom;aspect=fixed;imageAspect=0;image=data:image/svg+xml,PHN2ZyB4bWxucz0iaHR0cDovL3d3dy53My5vcmcvMjAwMC9zdmciIHhtbG5zOnY9Imh0dHBzOi8vdmVjdGEuaW8vbmFubyIgd2lkdGg9IjIwIiBoZWlnaHQ9IjIwIiB2aWV3Qm94PSIwIDAgMjAgMjAiPiYjeGE7CTxzdHlsZSB0eXBlPSJ0ZXh0L2NzcyI+JiN4YTsJLnN0MHtmaWxsOiM0Mjg1ZjQ7fSYjeGE7CTwvc3R5bGU+JiN4YTsJPHBhdGggY2xhc3M9InN0MCIgZD0iTTE3IDEydjNsLTUtNSA1LTV2M2gzdjR6TTMgOEgwdjRoM3YzbDUtNS01LTV6bTkgN3YtM0g4djNINWw1IDUgNS01em0wLTEwdjNIOFY1SDVsNS01IDUgNXoiLz4mI3hhOzwvc3ZnPg==;labelPosition=center;align=center;" vertex="1" parent="1">
          <mxGeometry x="887" y="900" width="80" height="80" as="geometry" />
        </mxCell>
        <mxCell id="9nUGr13jLYYh1S3SIOJ--25" style="edgeStyle=orthogonalEdgeStyle;rounded=0;orthogonalLoop=1;jettySize=auto;html=1;entryX=0.5;entryY=0;entryDx=0;entryDy=0;entryPerimeter=0;" edge="1" parent="1" source="9nUGr13jLYYh1S3SIOJ--24" target="1c7a67bf8fd3230f-47">
          <mxGeometry relative="1" as="geometry" />
        </mxCell>
        <mxCell id="9nUGr13jLYYh1S3SIOJ--64" value="cat5e" style="edgeLabel;html=1;align=center;verticalAlign=middle;resizable=0;points=[];" vertex="1" connectable="0" parent="9nUGr13jLYYh1S3SIOJ--25">
          <mxGeometry x="0.6332" y="-1" relative="1" as="geometry">
            <mxPoint as="offset" />
          </mxGeometry>
        </mxCell>
        <mxCell id="9nUGr13jLYYh1S3SIOJ--24" value="&lt;div&gt;TrueNAS server&lt;/div&gt;&lt;div&gt;192.168.88.0/24&lt;/div&gt;" style="fontColor=#0066CC;verticalAlign=top;verticalLabelPosition=bottom;labelPosition=center;align=center;html=1;outlineConnect=0;fillColor=#CCCCCC;strokeColor=#6881B3;gradientColor=none;gradientDirection=north;strokeWidth=2;shape=mxgraph.networks.nas_filer;" vertex="1" parent="1">
          <mxGeometry x="1000" y="271.5" width="100" height="35" as="geometry" />
        </mxCell>
        <mxCell id="9nUGr13jLYYh1S3SIOJ--35" value="&lt;div&gt;951U-2HnD&lt;/div&gt;&lt;div&gt;192.168.89.0/24&lt;br&gt;&lt;/div&gt;" style="shape=mxgraph.cisco.routers.router;html=1;dashed=0;fillColor=#036897;strokeColor=#ffffff;strokeWidth=2;verticalLabelPosition=middle;verticalAlign=middle;rounded=0;shadow=0;comic=0;fontFamily=Verdana;fontSize=12;labelPosition=right;align=left;" vertex="1" parent="1">
          <mxGeometry x="845" y="1300" width="180" height="110" as="geometry" />
        </mxCell>
        <mxCell id="9nUGr13jLYYh1S3SIOJ--37" style="edgeStyle=orthogonalEdgeStyle;rounded=0;orthogonalLoop=1;jettySize=auto;html=1;" edge="1" parent="1" source="9nUGr13jLYYh1S3SIOJ--36" target="9nUGr13jLYYh1S3SIOJ--35">
          <mxGeometry relative="1" as="geometry">
            <Array as="points">
              <mxPoint x="1101" y="1180" />
              <mxPoint x="1230" y="1180" />
            </Array>
          </mxGeometry>
        </mxCell>
        <mxCell id="9nUGr13jLYYh1S3SIOJ--38" style="edgeStyle=orthogonalEdgeStyle;rounded=0;orthogonalLoop=1;jettySize=auto;html=1;" edge="1" parent="1" source="9nUGr13jLYYh1S3SIOJ--36" target="9nUGr13jLYYh1S3SIOJ--18">
          <mxGeometry relative="1" as="geometry" />
        </mxCell>
        <mxCell id="9nUGr13jLYYh1S3SIOJ--41" value="&lt;div&gt;VPN (PPTP)&lt;/div&gt;&lt;div&gt;&lt;div&gt;10.0.3.0/24&lt;/div&gt;&lt;/div&gt;" style="edgeLabel;html=1;align=center;verticalAlign=middle;resizable=0;points=[];" vertex="1" connectable="0" parent="9nUGr13jLYYh1S3SIOJ--38">
          <mxGeometry x="0.2975" y="3" relative="1" as="geometry">
            <mxPoint x="3" y="18" as="offset" />
          </mxGeometry>
        </mxCell>
        <mxCell id="9nUGr13jLYYh1S3SIOJ--47" value="PPTP&amp;nbsp; (10.130.130.0)" style="edgeStyle=orthogonalEdgeStyle;rounded=0;orthogonalLoop=1;jettySize=auto;html=1;" edge="1" parent="1" source="9nUGr13jLYYh1S3SIOJ--36" target="9nUGr13jLYYh1S3SIOJ--2">
          <mxGeometry relative="1" as="geometry">
            <Array as="points">
              <mxPoint x="710" y="1150" />
            </Array>
          </mxGeometry>
        </mxCell>
        <mxCell id="9nUGr13jLYYh1S3SIOJ--48" style="edgeStyle=orthogonalEdgeStyle;rounded=0;orthogonalLoop=1;jettySize=auto;html=1;" edge="1" parent="1" source="9nUGr13jLYYh1S3SIOJ--36" target="9nUGr13jLYYh1S3SIOJ--1">
          <mxGeometry relative="1" as="geometry">
            <Array as="points">
              <mxPoint x="1140" y="1150" />
            </Array>
          </mxGeometry>
        </mxCell>
        <mxCell id="9nUGr13jLYYh1S3SIOJ--49" value="PPTP (10.130.130.0)" style="edgeLabel;html=1;align=center;verticalAlign=middle;resizable=0;points=[];" vertex="1" connectable="0" parent="9nUGr13jLYYh1S3SIOJ--48">
          <mxGeometry x="0.1845" y="-1" relative="1" as="geometry">
            <mxPoint as="offset" />
          </mxGeometry>
        </mxCell>
        <UserObject label="&lt;div&gt;Internet RDTC&lt;/div&gt;&lt;div&gt;188.123.42.213/19&lt;/div&gt;&lt;div&gt;&lt;br&gt;&lt;/div&gt;" id="9nUGr13jLYYh1S3SIOJ--36">
          <mxCell style="ellipse;shape=cloud;whiteSpace=wrap;html=1;rounded=0;shadow=0;comic=0;strokeWidth=1;fontFamily=Verdana;fontSize=12;" vertex="1" parent="1">
            <mxGeometry x="836" y="1100" width="182" height="100" as="geometry" />
          </mxCell>
        </UserObject>
        <mxCell id="9nUGr13jLYYh1S3SIOJ--44" value="&lt;div&gt;802.11 b.g.n dhcp &lt;br&gt;&lt;/div&gt;&lt;div&gt;(192.168.89.0/24)&lt;/div&gt;" style="sketch=0;outlineConnect=0;fontColor=#232F3E;gradientColor=none;fillColor=#232F3D;strokeColor=none;dashed=0;verticalLabelPosition=bottom;verticalAlign=top;align=center;html=1;fontSize=12;fontStyle=0;aspect=fixed;pointerEvents=1;shape=mxgraph.aws4.mobile_client;" vertex="1" parent="1">
          <mxGeometry x="1080.5" y="1512" width="41" height="78" as="geometry" />
        </mxCell>
        <mxCell id="9nUGr13jLYYh1S3SIOJ--55" style="edgeStyle=orthogonalEdgeStyle;rounded=0;orthogonalLoop=1;jettySize=auto;html=1;" edge="1" parent="1" source="9nUGr13jLYYh1S3SIOJ--52" target="9nUGr13jLYYh1S3SIOJ--35">
          <mxGeometry relative="1" as="geometry">
            <Array as="points">
              <mxPoint x="935" y="1530" />
            </Array>
          </mxGeometry>
        </mxCell>
        <mxCell id="9nUGr13jLYYh1S3SIOJ--65" value="cat5e" style="edgeLabel;html=1;align=center;verticalAlign=middle;resizable=0;points=[];" vertex="1" connectable="0" parent="9nUGr13jLYYh1S3SIOJ--55">
          <mxGeometry x="-0.5026" relative="1" as="geometry">
            <mxPoint as="offset" />
          </mxGeometry>
        </mxCell>
        <mxCell id="9nUGr13jLYYh1S3SIOJ--52" value="&lt;div&gt;IPTV&lt;/div&gt;&lt;div&gt;(192.168.89.0/24)&lt;br&gt;&lt;/div&gt;" style="points=[];aspect=fixed;html=1;align=center;shadow=0;dashed=0;image;image=img/lib/allied_telesis/computer_and_terminals/IP_TV.svg;labelBackgroundColor=none;" vertex="1" parent="1">
          <mxGeometry x="720" y="1450" width="136.67" height="140" as="geometry" />
        </mxCell>
        <mxCell id="9nUGr13jLYYh1S3SIOJ--54" value="&lt;div&gt;&lt;div&gt;802.11 b.g.n dhcp &lt;br&gt;&lt;/div&gt;&lt;div&gt;(192.168.89.0/24)&lt;/div&gt;&lt;/div&gt;" style="shape=image;html=1;verticalAlign=top;verticalLabelPosition=bottom;labelBackgroundColor=#ffffff;imageAspect=0;aspect=fixed;image=https://cdn0.iconfinder.com/data/icons/devices-42/512/Laptop-128.png" vertex="1" parent="1">
          <mxGeometry x="1340" y="1410" width="220" height="220" as="geometry" />
        </mxCell>
        <mxCell id="9nUGr13jLYYh1S3SIOJ--59" value="SD-WAN" style="text;html=1;align=center;verticalAlign=middle;resizable=0;points=[];autosize=1;strokeColor=none;fillColor=none;" vertex="1" parent="1">
          <mxGeometry x="878" y="630" width="70" height="30" as="geometry" />
        </mxCell>
      </root>
    </mxGraphModel>
  </diagram>
</mxfile>
